<?xml version="1.0" encoding="UTF-8" standalone="no"?>
<svg xmlns="http://www.w3.org/2000/svg" version="1.1" viewBox="0.00 0.00 1200.00 1200.00">
  <g stroke-width="2.00" fill="none" stroke-linecap="butt">
    <path stroke="#2ea6dd" vector-effect="non-scaling-stroke" d="   M 1173.01 421.46   Q 1155.72 421.82 1138.51 421.87   Q 1034.79 422.18 931.06 422.08   Q 916.36 422.07 888.37 421.30"></path>
    <path stroke="#99d5ef" vector-effect="non-scaling-stroke" d="   M 888.37 421.30   Q 890.91 407.10 893.33 392.87   Q 895.20 381.81 896.21 367.69   Q 896.62 361.99 895.93 355.06   Q 894.39 339.59 878.75 339.24   Q 869.09 339.02 859.82 342.34   Q 746.46 383.04 600.09 436.82"></path>
    <path stroke="#2ea6dd" vector-effect="non-scaling-stroke" d="   M 600.09 436.82   Q 573.37 434.11 544.45 434.11   Q 308.89 434.08 73.32 434.11   Q 51.37 434.11 22.72 435.77"></path>
    <path stroke="#95d0ed" vector-effect="non-scaling-stroke" d="   M 888.37 421.30   Q 868.59 516.05 844.76 616.26   Q 823.11 707.31 808.77 766.20"></path>
    <path stroke="#91ccea" vector-effect="non-scaling-stroke" d="   M 808.77 766.20   Q 799.50 804.15 790.21 841.93   Q 787.99 850.96 786.50 854.23   C 782.15 863.79 774.36 871.92 763.96 873.49   Q 753.04 875.15 742.12 870.40   Q 737.38 868.34 726.70 859.46   Q 714.04 848.94 706.74 843.49   Q 659.70 808.33 602.57 769.20"></path>
    <path stroke="#d4e3ec" vector-effect="non-scaling-stroke" d="   M 602.57 769.20   Q 553.10 735.05 503.31 701.68   Q 502.07 700.85 500.23 698.18"></path>
    <path stroke="#e4edf5" vector-effect="non-scaling-stroke" d="   M 500.23 698.18   Q 500.52 693.56 503.33 691.07   Q 599.80 605.26 682.19 527.69   Q 701.95 509.08 726.16 485.41   Q 738.31 473.52 756.59 454.10   Q 765.15 445.02 770.90 436.18   Q 771.89 434.65 771.72 433.87   A 2.40 2.37 74.8 0 0 768.67 432.10   Q 765.19 433.22 762.51 434.74   Q 746.98 443.60 730.10 453.86   Q 662.94 494.67 585.45 543.20   Q 494.01 600.46 415.22 650.22   Q 413.87 651.07 408.85 651.32"></path>
    <path stroke="#95d0ed" vector-effect="non-scaling-stroke" d="   M 408.85 651.32   Q 336.36 627.72 263.45 604.15   Q 255.44 601.56 250.84 594.89   Q 245.79 587.56 249.74 578.66   C 251.84 573.93 259.00 569.18 263.30 566.80   Q 267.50 564.48 281.57 558.31   Q 292.58 553.48 325.19 540.42   Q 373.61 521.03 463.26 487.51   Q 531.54 461.97 600.09 436.82"></path>
    <path stroke="#269dd8" vector-effect="non-scaling-stroke" d="   M 1176.89 765.57   Q 1142.35 766.21 1108.00 766.18   Q 958.47 766.07 808.77 766.20"></path>
    <path stroke="#b9d0e1" vector-effect="non-scaling-stroke" d="   M 500.23 698.18   Q 493.37 769.91 486.70 841.50   Q 486.09 848.00 488.74 856.31"></path>
    <path stroke="#75bae0" vector-effect="non-scaling-stroke" d="   M 488.74 856.31   Q 480.01 848.29 476.81 839.44   Q 465.60 808.45 454.42 777.47"></path>
    <path stroke="#79bee2" vector-effect="non-scaling-stroke" d="   M 454.42 777.47   L 408.85 651.32"></path>
    <path stroke="#269dd8" vector-effect="non-scaling-stroke" d="   M 454.42 777.47   C 439.56 777.74 424.72 778.08 409.83 778.09   Q 157.92 778.17 92.25 778.12   Q 57.39 778.09 27.32 779.54"></path>
    <path stroke="#66b0d7" vector-effect="non-scaling-stroke" d="   M 602.57 769.20   Q 560.73 804.55 522.00 843.00   Q 515.81 849.15 509.00 853.98   Q 503.94 857.57 498.33 859.11   Q 495.67 859.85 493.24 859.09   Q 490.52 858.25 488.74 856.31"></path>
  </g>
  <path fill="#32aadf" d="   M 608.97 0.00   Q 736.97 2.22 852.43 55.52   C 930.02 91.34 999.33 144.25 1054.83 208.67   Q 1135.53 302.35 1173.01 421.46   Q 1155.72 421.82 1138.51 421.87   Q 1034.79 422.18 931.06 422.08   Q 916.36 422.07 888.37 421.30   Q 890.91 407.10 893.33 392.87   Q 895.20 381.81 896.21 367.69   Q 896.62 361.99 895.93 355.06   Q 894.39 339.59 878.75 339.24   Q 869.09 339.02 859.82 342.34   Q 746.46 383.04 600.09 436.82   Q 573.37 434.11 544.45 434.11   Q 308.89 434.08 73.32 434.11   Q 51.37 434.11 22.72 435.77   Q 61.65 300.78 155.03 197.52   C 208.89 137.97 275.06 88.86 348.45 55.13   Q 463.25 2.37 590.43 0.00   L 608.97 0.00   Z"></path>
  <path fill="#ffffff" d="   M 888.37 421.30   Q 868.59 516.05 844.76 616.26   Q 823.11 707.31 808.77 766.20   Q 799.50 804.15 790.21 841.93   Q 787.99 850.96 786.50 854.23   C 782.15 863.79 774.36 871.92 763.96 873.49   Q 753.04 875.15 742.12 870.40   Q 737.38 868.34 726.70 859.46   Q 714.04 848.94 706.74 843.49   Q 659.70 808.33 602.57 769.20   Q 553.10 735.05 503.31 701.68   Q 502.07 700.85 500.23 698.18   Q 500.52 693.56 503.33 691.07   Q 599.80 605.26 682.19 527.69   Q 701.95 509.08 726.16 485.41   Q 738.31 473.52 756.59 454.10   Q 765.15 445.02 770.90 436.18   Q 771.89 434.65 771.72 433.87   A 2.40 2.37 74.8 0 0 768.67 432.10   Q 765.19 433.22 762.51 434.74   Q 746.98 443.60 730.10 453.86   Q 662.94 494.67 585.45 543.20   Q 494.01 600.46 415.22 650.22   Q 413.87 651.07 408.85 651.32   Q 336.36 627.72 263.45 604.15   Q 255.44 601.56 250.84 594.89   Q 245.79 587.56 249.74 578.66   C 251.84 573.93 259.00 569.18 263.30 566.80   Q 267.50 564.48 281.57 558.31   Q 292.58 553.48 325.19 540.42   Q 373.61 521.03 463.26 487.51   Q 531.54 461.97 600.09 436.82   Q 746.46 383.04 859.82 342.34   Q 869.09 339.02 878.75 339.24   Q 894.39 339.59 895.93 355.06   Q 896.62 361.99 896.21 367.69   Q 895.20 381.81 893.33 392.87   Q 890.91 407.10 888.37 421.30   Z"></path>
  <path fill="#2aa1da" d="   M 1173.01 421.46   Q 1198.46 503.95 1200.00 590.48   L 1200.00 609.63   Q 1198.53 689.19 1176.89 765.57   Q 1142.35 766.21 1108.00 766.18   Q 958.47 766.07 808.77 766.20   Q 823.11 707.31 844.76 616.26   Q 868.59 516.05 888.37 421.30   Q 916.36 422.07 931.06 422.08   Q 1034.79 422.18 1138.51 421.87   Q 1155.72 421.82 1173.01 421.46   Z"></path>
  <path fill="#c8daea" d="   M 500.23 698.18   Q 493.37 769.91 486.70 841.50   Q 486.09 848.00 488.74 856.31   Q 480.01 848.29 476.81 839.44   Q 465.60 808.45 454.42 777.47   L 408.85 651.32   Q 413.87 651.07 415.22 650.22   Q 494.01 600.46 585.45 543.20   Q 662.94 494.67 730.10 453.86   Q 746.98 443.60 762.51 434.74   Q 765.19 433.22 768.67 432.10   A 2.40 2.37 74.8 0 1 771.72 433.87   Q 771.89 434.65 770.90 436.18   Q 765.15 445.02 756.59 454.10   Q 738.31 473.52 726.16 485.41   Q 701.95 509.08 682.19 527.69   Q 599.80 605.26 503.33 691.07   Q 500.52 693.56 500.23 698.18   Z"></path>
  <path fill="#2aa1da" d="   M 600.09 436.82   Q 531.54 461.97 463.26 487.51   Q 373.61 521.03 325.19 540.42   Q 292.58 553.48 281.57 558.31   Q 267.50 564.48 263.30 566.80   C 259.00 569.18 251.84 573.93 249.74 578.66   Q 245.79 587.56 250.84 594.89   Q 255.44 601.56 263.45 604.15   Q 336.36 627.72 408.85 651.32   L 454.42 777.47   C 439.56 777.74 424.72 778.08 409.83 778.09   Q 157.92 778.17 92.25 778.12   Q 57.39 778.09 27.32 779.54   Q 1.71 697.07 0.00 610.51   L 0.00 589.62   Q 1.56 511.14 22.72 435.77   Q 51.37 434.11 73.32 434.11   Q 308.89 434.08 544.45 434.11   Q 573.37 434.11 600.09 436.82   Z"></path>
  <path fill="#a9c6d8" d="   M 500.23 698.18   Q 502.07 700.85 503.31 701.68   Q 553.10 735.05 602.57 769.20   Q 560.73 804.55 522.00 843.00   Q 515.81 849.15 509.00 853.98   Q 503.94 857.57 498.33 859.11   Q 495.67 859.85 493.24 859.09   Q 490.52 858.25 488.74 856.31   Q 486.09 848.00 486.70 841.50   Q 493.37 769.91 500.23 698.18   Z"></path>
  <path fill="#2299d5" d="   M 1176.89 765.57   Q 1137.95 899.48 1045.32 1002.08   C 991.23 1061.99 924.71 1111.36 850.90 1145.17   Q 736.12 1197.76 609.03 1200.00   L 590.60 1200.00   Q 448.24 1197.26 322.81 1132.24   Q 313.92 1127.64 305.23 1122.70   Q 207.61 1067.30 136.62 981.14   Q 62.69 891.42 27.32 779.54   Q 57.39 778.09 92.25 778.12   Q 157.92 778.17 409.83 778.09   C 424.72 778.08 439.56 777.74 454.42 777.47   Q 465.60 808.45 476.81 839.44   Q 480.01 848.29 488.74 856.31   Q 490.52 858.25 493.24 859.09   Q 495.67 859.85 498.33 859.11   Q 503.94 857.57 509.00 853.98   Q 515.81 849.15 522.00 843.00   Q 560.73 804.55 602.57 769.20   Q 659.70 808.33 706.74 843.49   Q 714.04 848.94 726.70 859.46   Q 737.38 868.34 742.12 870.40   Q 753.04 875.15 763.96 873.49   C 774.36 871.92 782.15 863.79 786.50 854.23   Q 787.99 850.96 790.21 841.93   Q 799.50 804.15 808.77 766.20   Q 958.47 766.07 1108.00 766.18   Q 1142.35 766.21 1176.89 765.57   Z"></path>
</svg>
